<svg width="15" height="8" viewBox="0 0 15 8" fill="none" xmlns="http://www.w3.org/2000/svg">
<path fill-rule="evenodd" clip-rule="evenodd" d="M14.2572 7.25C14.6714 7.24991 15.0071 6.91406 15.007 6.49984L15.0056 0.749844C15.0055 0.33563 14.6697 -8.62909e-05 14.2555 1.66375e-08C13.8412 8.63242e-05 13.5055 0.335943 13.5056 0.750156L13.5066 4.5C13.2817 4.23076 13.0794 3.98947 12.9588 3.85853C11.5435 2.32194 9.51233 1.35759 7.25698 1.35759C3.98694 1.35759 1.19169 3.38258 0.0533304 6.24423C-0.0997744 6.62911 0.0881166 7.06523 0.472996 7.21833C0.857875 7.37144 1.294 7.18355 1.4471 6.79867C2.36609 4.48847 4.62199 2.85759 7.25698 2.85759C9.07581 2.85759 10.7123 3.63354 11.8554 4.87473C11.9589 4.9871 12.1442 5.20888 12.3768 5.48735C12.4462 5.57043 12.5198 5.65857 12.5967 5.75035L8.50686 5.75141C8.09265 5.75149 7.75693 6.08735 7.75702 6.50156C7.75711 6.91578 8.09296 7.25149 8.50718 7.25141L14.2572 7.25Z" fill="black"/>
</svg>
