<svg width="15" height="8" viewBox="0 0 15 8" fill="none" xmlns="http://www.w3.org/2000/svg">
<path fill-rule="evenodd" clip-rule="evenodd" d="M0.749844 7.25C0.33563 7.24991 -8.62909e-05 6.91406 1.66375e-08 6.49984L0.00140663 0.749844C0.00149293 0.33563 0.337349 -8.62909e-05 0.751563 1.66375e-08C1.16578 8.63242e-05 1.50149 0.335943 1.50141 0.750156L1.50042 4.5C1.72532 4.23076 1.92764 3.98947 2.04824 3.85853C3.46348 2.32194 5.49469 1.35759 7.75004 1.35759C11.0201 1.35759 13.8153 3.38258 14.9537 6.24423C15.1068 6.62911 14.9189 7.06523 14.534 7.21833C14.1491 7.37144 13.713 7.18355 13.5599 6.79867C12.6409 4.48847 10.385 2.85759 7.75004 2.85759C5.93121 2.85759 4.29473 3.63354 3.15157 4.87473C3.04808 4.9871 2.86284 5.20888 2.63026 5.48735C2.56086 5.57043 2.48725 5.65857 2.41034 5.75035L6.50016 5.75141C6.91437 5.75149 7.25009 6.08735 7.25 6.50156C7.24991 6.91578 6.91406 7.25149 6.49984 7.25141L0.749844 7.25Z" fill="black"/>
</svg>
